<svg xmlns="http://www.w3.org/2000/svg" viewBox="0 0 24 24" role="img" aria-labelledby="title desc">
  <title id="title">ArcBot Hex Core</title>
  <desc id="desc">A geometric AI core inside a hex frame with a friendly bot face.</desc>
  <g fill="none" stroke="currentColor" stroke-width="1.8" stroke-linecap="round" stroke-linejoin="round">
    <path d="M12 3.8l7.1 4.1v8.2L12 20.2l-7.1-4.1V7.9z"/>
    <path d="M8.4 10c0-1 .8-1.8 1.8-1.8h3.6c1 0 1.8.8 1.8 1.8v3.5c0 1-.8 1.8-1.8 1.8h-3.6c-1 0-1.8-.8-1.8-1.8z"/>
    <path d="M12 8.2V6.4"/>
    <path d="M10.4 6.4h3.2"/>
    <path d="M10.6 11.5h.01"/>
    <path d="M13.4 11.5h.01"/>
    <path d="M10.8 13.4h2.4"/>
    <path d="M4.9 7.9l3.5 2"/>
    <path d="M19.1 7.9l-3.5 2"/>
    <path d="M12 20.2v-4.9"/>
  </g>
</svg>
