<svg xmlns="http://www.w3.org/2000/svg" viewBox="0 0 24 24" role="img" aria-labelledby="title desc">
  <title id="title">ArcBot Bird Wing</title>
  <desc id="desc">A side-view bird-inspired assistant icon with a large wing.</desc>
  <g fill="none" stroke="currentColor" stroke-width="1.8" stroke-linecap="round" stroke-linejoin="round">
    <path d="M4.2 13.2c2.1-4.7 6.4-7.4 11.2-7.1 2.1.1 3.5.9 4.4 2.1-1.1.1-2 .4-2.8 1"/>
    <path d="M17 9.2l3.4 1.8-3.6 1.4"/>
    <path d="M6.4 13.4c2.8-1.2 6.4-.5 9.3 2-3.2 1.8-7.2 1.2-10.2-1"/>
    <path d="M8.1 12.8c1.5 1.3 2.9 2.2 4.4 2.9"/>
    <path d="M10.9 12.4c1.2 1.2 2.3 2 3.5 2.5"/>
    <path d="M14.8 8.6h.01"/>
    <path d="M5.4 14.5l-1.8 2.1"/>
    <path d="M7.3 14.9l-1 2.4"/>
  </g>
</svg>
