<svg xmlns="http://www.w3.org/2000/svg" viewBox="0 0 24 24" role="img" aria-labelledby="title desc">
  <title id="title">ArcBot Owl Face</title>
  <desc id="desc">A simple owl-face assistant icon with large eyes.</desc>
  <g fill="none" stroke="currentColor" stroke-width="1.8" stroke-linecap="round" stroke-linejoin="round">
    <path d="M5.2 8.4l2.3-3.2 3.2 1.4c.8-.2 1.8-.2 2.6 0l3.2-1.4 2.3 3.2v4.7c0 3.8-2.9 6.5-6.8 6.5s-6.8-2.7-6.8-6.5z"/>
    <path d="M8.1 11.5c0-1.3 1-2.3 2.3-2.3s2.3 1 2.3 2.3-1 2.3-2.3 2.3-2.3-1-2.3-2.3z"/>
    <path d="M11.3 11.5h.01"/>
    <path d="M13.6 11.5c0-1.3 1-2.3 2.3-2.3s2.3 1 2.3 2.3-1 2.3-2.3 2.3-2.3-1-2.3-2.3z"/>
    <path d="M15.9 11.5h.01"/>
    <path d="M12 14.4l-1.1 1.4h2.2z"/>
    <path d="M9.2 17.1c1.8 1 3.8 1 5.6 0"/>
  </g>
</svg>
