<svg xmlns="http://www.w3.org/2000/svg" viewBox="0 0 24 24" role="img" aria-labelledby="title desc">
  <title id="title">ArcBot Spark Chat</title>
  <desc id="desc">A chat bubble with bot eyes and a small reasoning spark.</desc>
  <g fill="none" stroke="currentColor" stroke-width="1.8" stroke-linecap="round" stroke-linejoin="round">
    <path d="M5.2 7.5c0-1.7 1.4-3.1 3.1-3.1h7.4c1.7 0 3.1 1.4 3.1 3.1v5.4c0 1.7-1.4 3.1-3.1 3.1h-4.4l-4 3.2v-3.4c-1.2-.4-2.1-1.6-2.1-2.9z"/>
    <path d="M10 10.2h.01"/>
    <path d="M14 10.2h.01"/>
    <path d="M10.5 12.8h3"/>
    <path d="M18.3 3.2l.5 1.2 1.2.5-1.2.5-.5 1.2-.5-1.2-1.2-.5 1.2-.5z"/>
    <path d="M4.1 5.2l.3.8.8.3-.8.3-.3.8-.3-.8-.8-.3.8-.3z"/>
  </g>
</svg>
